<svg xmlns="http://www.w3.org/2000/svg" id="export" class="canvas" preserveAspectRatio="xMidYMid meet" style="" width="689" height="172"><rect id="background" fill="#fff" pointer-events="all" width="689" height="172"/><g id="origin" transform="translate(7.800000000000001, 7.800000000000001) scale(1)"><g id="clusters" class="clusters"/><g id="edge-paths" class="edge-paths"><defs><marker id="arrowhead" viewBox="0 0 10 10" refX="9" refY="5" markerUnits="strokeWidth" markerWidth="8" markerHeight="6" orient="auto" style="fill: rgb(0, 0, 0);"><path d="M 0 0 L 10 5 L 0 10 L 4 5 z" style="stroke-width: 1;"/></marker><marker id="arrowhead-select" viewBox="0 0 10 10" refX="9" refY="5" markerUnits="strokeWidth" markerWidth="8" markerHeight="6" orient="auto" style="fill: rgba(220, 0, 0, 0.9);"><path d="M 0 0 L 10 5 L 0 10 L 4 5 z" style="stroke-width: 1;"/></marker><marker id="arrowhead-hover" viewBox="0 0 10 10" refX="9" refY="5" markerUnits="strokeWidth" markerWidth="8" markerHeight="6" orient="auto" style="fill: rgba(220, 0, 0, 0.9);"><path d="M 0 0 L 10 5 L 0 10 L 4 5 z" style="stroke-width: 1;"/></marker></defs><path id="edge-input_layer" class="edge-path" d="M68.2099609375,78L69.87662760416667,78C71.54329427083333,78,74.87662760416667,78,78.2099609375,78C81.54329427083333,78,84.87662760416667,78,88.2099609375,78C91.54329427083333,78,94.87662760416667,78,98.2099609375,78C101.54329427083333,78,104.87662760416667,78,106.54329427083333,78L108.2099609375,78" style="stroke: rgb(0, 0, 0); stroke-width: 1px; fill: none; marker-end: url(&quot;#arrowhead&quot;);"/><path class="edge-path-hit-test" d="M68.2099609375,78L69.87662760416667,78C71.54329427083333,78,74.87662760416667,78,78.2099609375,78C81.54329427083333,78,84.87662760416667,78,88.2099609375,78C91.54329427083333,78,94.87662760416667,78,98.2099609375,78C101.54329427083333,78,104.87662760416667,78,106.54329427083333,78L108.2099609375,78" style="pointer-events: stroke; stroke-width: 0.5em; fill: none; stroke: rgb(0, 0, 0); stroke-opacity: 0.001;"/><path id="edge-dense" class="edge-path" d="M196.2880859375,78L197.95475260416666,78C199.62141927083334,78,202.95475260416666,78,206.2880859375,78C209.62141927083334,78,212.95475260416666,78,214.62141927083334,78L216.2880859375,78" style="stroke: rgb(0, 0, 0); stroke-width: 1px; fill: none; marker-end: url(&quot;#arrowhead&quot;);"/><path class="edge-path-hit-test" d="M196.2880859375,78L197.95475260416666,78C199.62141927083334,78,202.95475260416666,78,206.2880859375,78C209.62141927083334,78,212.95475260416666,78,214.62141927083334,78L216.2880859375,78" style="pointer-events: stroke; stroke-width: 0.5em; fill: none; stroke: rgb(0, 0, 0); stroke-opacity: 0.001;"/><path id="edge-dense_1" class="edge-path" d="M307.8349609375,78L309.5016276041667,78C311.1682942708333,78,314.5016276041667,78,317.8349609375,78C321.1682942708333,78,324.5016276041667,78,326.1682942708333,78L327.8349609375,78" style="stroke: rgb(0, 0, 0); stroke-width: 1px; fill: none; marker-end: url(&quot;#arrowhead&quot;);"/><path class="edge-path-hit-test" d="M307.8349609375,78L309.5016276041667,78C311.1682942708333,78,314.5016276041667,78,317.8349609375,78C321.1682942708333,78,324.5016276041667,78,326.1682942708333,78L327.8349609375,78" style="pointer-events: stroke; stroke-width: 0.5em; fill: none; stroke: rgb(0, 0, 0); stroke-opacity: 0.001;"/><path id="edge-dense_2" class="edge-path" d="M454.6689453125,78L456.3356119791667,78C458.0022786458333,78,461.3356119791667,78,464.6689453125,78C468.0022786458333,78,471.3356119791667,78,473.0022786458333,78L474.6689453125,78" style="stroke: rgb(0, 0, 0); stroke-width: 1px; fill: none; marker-end: url(&quot;#arrowhead&quot;);"/><path class="edge-path-hit-test" d="M454.6689453125,78L456.3356119791667,78C458.0022786458333,78,461.3356119791667,78,464.6689453125,78C468.0022786458333,78,471.3356119791667,78,473.0022786458333,78L474.6689453125,78" style="pointer-events: stroke; stroke-width: 0.5em; fill: none; stroke: rgb(0, 0, 0); stroke-opacity: 0.001;"/><path id="edge-dense_3" class="edge-path" d="M598.9892578125,78L600.6559244791666,78C602.3225911458334,78,605.6559244791666,78,608.9892578125,78C612.3225911458334,78,615.6559244791666,78,617.3225911458334,78L618.9892578125,78" style="stroke: rgb(0, 0, 0); stroke-width: 1px; fill: none; marker-end: url(&quot;#arrowhead&quot;);"/><path class="edge-path-hit-test" d="M598.9892578125,78L600.6559244791666,78C602.3225911458334,78,605.6559244791666,78,608.9892578125,78C612.3225911458334,78,615.6559244791666,78,617.3225911458334,78L618.9892578125,78" style="pointer-events: stroke; stroke-width: 0.5em; fill: none; stroke: rgb(0, 0, 0); stroke-opacity: 0.001;"/></g><g id="edge-labels" class="edge-labels"/><g id="nodes" class="nodes"><g id="input-name-input_layer" class="node graph-input" transform="translate(0,66.5)" style=""><g class="node-item graph-item-input" transform="translate(0,0)"><path d="M5,0h58.2099609375a5,5 0 0 1 5,5v13a5,5 0 0 1 -5,5h-58.2099609375a5,5 0 0 1 -5,-5v-13a5,5 0 0 1 5,-5z" style="stroke: rgb(0, 0, 0); fill: rgb(238, 238, 238); stroke-width: 0;"/><text x="6" y="16" style="font-family: -apple-system, BlinkMacSystemFont, &quot;Segoe WPC&quot;, &quot;Segoe UI&quot;, Ubuntu, &quot;Droid Sans&quot;, sans-serif, &quot;PingFang SC&quot;; font-size: 11px; text-rendering: geometricprecision; user-select: none;">input_layer</text><title>float32</title></g><path class="node node-border" d="M5,0h58.2099609375a5,5 0 0 1 5,5v13a5,5 0 0 1 -5,5h-58.2099609375a5,5 0 0 1 -5,-5v-13a5,5 0 0 1 5,-5z" style="stroke: rgb(51, 51, 51); fill: none; stroke-width: 1px;"/></g><g id="node-name-dense" class="node graph-node" transform="translate(108.2099609375,0)" style=""><g class="node-item node-item-type node-item-type-layer" transform="translate(0,0)"><path d="M5,0h78.078125a5,5 0 0 1 5,5v18a0,0 0 0 1 0,0h-88.078125a0,0 0 0 1 0,0v-18a5,5 0 0 1 5,-5z" style="stroke: rgb(0, 0, 0); fill: rgb(51, 85, 136); stroke-width: 0;"/><text x="6" y="16" style="font-family: -apple-system, BlinkMacSystemFont, &quot;Segoe WPC&quot;, &quot;Segoe UI&quot;, Ubuntu, &quot;Droid Sans&quot;, sans-serif, &quot;PingFang SC&quot;; font-size: 11px; text-rendering: geometricprecision; user-select: none; fill: rgb(255, 255, 255);">Dense</text><title>dense</title></g><g class="node-argument-list" transform="translate(0,23)"><path d="M0,0h88.078125a0,0 0 0 1 0,0v90a0,0 0 0 1 0,0h-88.078125a0,0 0 0 1 0,0v-90a0,0 0 0 1 0,0z" style="stroke: rgb(0, 0, 0); fill: rgb(255, 255, 255); stroke-width: 0;"/><g class="node-argument"><rect rx="3" ry="3" x="3" y="3" width="82.078125" height="14" style="fill: transparent;"/><text xml:space="preserve" x="6" y="14" style="font-family: -apple-system, BlinkMacSystemFont, &quot;Segoe WPC&quot;, &quot;Segoe UI&quot;, Ubuntu, &quot;Droid Sans&quot;, sans-serif, &quot;PingFang SC&quot;; font-size: 9px; font-weight: normal; text-rendering: geometricprecision; user-select: none;"><title>float32[5,256]</title><tspan style="font-weight: bold;">kernel</tspan><tspan>〈5×256〉</tspan></text></g><g class="node-argument"><rect rx="3" ry="3" x="3" y="17" width="82.078125" height="14" style="fill: transparent;"/><text xml:space="preserve" x="6" y="28" style="font-family: -apple-system, BlinkMacSystemFont, &quot;Segoe WPC&quot;, &quot;Segoe UI&quot;, Ubuntu, &quot;Droid Sans&quot;, sans-serif, &quot;PingFang SC&quot;; font-size: 9px; font-weight: normal; text-rendering: geometricprecision; user-select: none;"><title>float32[256]</title><tspan style="font-weight: bold;">bias</tspan><tspan>〈256〉</tspan></text></g><g class="node-argument"><rect rx="3" ry="3" x="3" y="31" width="82.078125" height="14" style="fill: transparent;"/><text xml:space="preserve" x="6" y="42" style="font-family: -apple-system, BlinkMacSystemFont, &quot;Segoe WPC&quot;, &quot;Segoe UI&quot;, Ubuntu, &quot;Droid Sans&quot;, sans-serif, &quot;PingFang SC&quot;; font-size: 9px; font-weight: normal; text-rendering: geometricprecision; user-select: none;"><tspan>activation</tspan><tspan> = relu</tspan></text></g><g class="node-argument"><rect rx="3" ry="3" x="3" y="45" width="82.078125" height="14" style="fill: transparent;"/><text xml:space="preserve" x="6" y="56" style="font-family: -apple-system, BlinkMacSystemFont, &quot;Segoe WPC&quot;, &quot;Segoe UI&quot;, Ubuntu, &quot;Droid Sans&quot;, sans-serif, &quot;PingFang SC&quot;; font-size: 9px; font-weight: normal; text-rendering: geometricprecision; user-select: none;"><tspan>bias_constraint</tspan><tspan> = </tspan></text></g><g class="node-argument"><rect rx="3" ry="3" x="3" y="59" width="82.078125" height="14" style="fill: transparent;"/><text xml:space="preserve" x="6" y="70" style="font-family: -apple-system, BlinkMacSystemFont, &quot;Segoe WPC&quot;, &quot;Segoe UI&quot;, Ubuntu, &quot;Droid Sans&quot;, sans-serif, &quot;PingFang SC&quot;; font-size: 9px; font-weight: normal; text-rendering: geometricprecision; user-select: none;"><tspan>kernel_constraint</tspan><tspan> = </tspan></text></g><g class="node-argument"><rect rx="3" ry="3" x="3" y="73" width="82.078125" height="14" style="fill: transparent;"/><text xml:space="preserve" x="6" y="84" style="font-family: -apple-system, BlinkMacSystemFont, &quot;Segoe WPC&quot;, &quot;Segoe UI&quot;, Ubuntu, &quot;Droid Sans&quot;, sans-serif, &quot;PingFang SC&quot;; font-size: 9px; font-weight: normal; text-rendering: geometricprecision; user-select: none;"><tspan>units</tspan><tspan> = 256</tspan></text></g><line class="node" x1="0" x2="88.078125" y1="0" y2="0" style="stroke: rgb(51, 51, 51); fill: none; stroke-width: 1px;"/></g><g class="node-item node-item-type node-item-type-activation" transform="translate(0,113)"><path d="M0,0h88.078125a0,0 0 0 1 0,0v23a0,0 0 0 1 0,0h-88.078125a0,0 0 0 1 0,0v-23a0,0 0 0 1 0,0z" style="stroke: rgb(0, 0, 0); fill: rgb(112, 41, 33); stroke-width: 0;"/><text x="6" y="16" style="font-family: -apple-system, BlinkMacSystemFont, &quot;Segoe WPC&quot;, &quot;Segoe UI&quot;, Ubuntu, &quot;Droid Sans&quot;, sans-serif, &quot;PingFang SC&quot;; font-size: 11px; text-rendering: geometricprecision; user-select: none; fill: rgb(255, 255, 255);">Activation</text></g><line class="node" x1="0" x2="88.078125" y1="113" y2="113" style="stroke: rgb(51, 51, 51); fill: none; stroke-width: 1px;"/><g class="node-argument-list" transform="translate(0,136)"><path d="M0,0h88.078125a0,0 0 0 1 0,0v15a5,5 0 0 1 -5,5h-78.078125a5,5 0 0 1 -5,-5v-15a0,0 0 0 1 0,0z" style="stroke: rgb(0, 0, 0); fill: rgb(255, 255, 255); stroke-width: 0;"/><g class="node-argument"><rect rx="3" ry="3" x="3" y="3" width="82.078125" height="14" style="fill: transparent;"/><text xml:space="preserve" x="6" y="14" style="font-family: -apple-system, BlinkMacSystemFont, &quot;Segoe WPC&quot;, &quot;Segoe UI&quot;, Ubuntu, &quot;Droid Sans&quot;, sans-serif, &quot;PingFang SC&quot;; font-size: 9px; font-weight: normal; text-rendering: geometricprecision; user-select: none;"><tspan>activation</tspan><tspan> = relu</tspan></text></g><line class="node" x1="0" x2="88.078125" y1="0" y2="0" style="stroke: rgb(51, 51, 51); fill: none; stroke-width: 1px;"/></g><path class="node node-border" d="M5,0h78.078125a5,5 0 0 1 5,5v146a5,5 0 0 1 -5,5h-78.078125a5,5 0 0 1 -5,-5v-146a5,5 0 0 1 5,-5z" style="stroke: rgb(51, 51, 51); fill: none; stroke-width: 1px;"/></g><g id="node-name-dense_1" class="node graph-node" transform="translate(216.2880859375,0)" style=""><g class="node-item node-item-type node-item-type-layer" transform="translate(0,0)"><path d="M5,0h81.546875a5,5 0 0 1 5,5v18a0,0 0 0 1 0,0h-91.546875a0,0 0 0 1 0,0v-18a5,5 0 0 1 5,-5z" style="stroke: rgb(0, 0, 0); fill: rgb(51, 85, 136); stroke-width: 0;"/><text x="6" y="16" style="font-family: -apple-system, BlinkMacSystemFont, &quot;Segoe WPC&quot;, &quot;Segoe UI&quot;, Ubuntu, &quot;Droid Sans&quot;, sans-serif, &quot;PingFang SC&quot;; font-size: 11px; text-rendering: geometricprecision; user-select: none; fill: rgb(255, 255, 255);">Dense</text><title>dense_1</title></g><g class="node-argument-list" transform="translate(0,23)"><path d="M0,0h91.546875a0,0 0 0 1 0,0v90a0,0 0 0 1 0,0h-91.546875a0,0 0 0 1 0,0v-90a0,0 0 0 1 0,0z" style="stroke: rgb(0, 0, 0); fill: rgb(255, 255, 255); stroke-width: 0;"/><g class="node-argument"><rect rx="3" ry="3" x="3" y="3" width="85.546875" height="14" style="fill: transparent;"/><text xml:space="preserve" x="6" y="14" style="font-family: -apple-system, BlinkMacSystemFont, &quot;Segoe WPC&quot;, &quot;Segoe UI&quot;, Ubuntu, &quot;Droid Sans&quot;, sans-serif, &quot;PingFang SC&quot;; font-size: 9px; font-weight: normal; text-rendering: geometricprecision; user-select: none;"><title>float32[256,256]</title><tspan style="font-weight: bold;">kernel</tspan><tspan>〈256×256〉</tspan></text></g><g class="node-argument"><rect rx="3" ry="3" x="3" y="17" width="85.546875" height="14" style="fill: transparent;"/><text xml:space="preserve" x="6" y="28" style="font-family: -apple-system, BlinkMacSystemFont, &quot;Segoe WPC&quot;, &quot;Segoe UI&quot;, Ubuntu, &quot;Droid Sans&quot;, sans-serif, &quot;PingFang SC&quot;; font-size: 9px; font-weight: normal; text-rendering: geometricprecision; user-select: none;"><title>float32[256]</title><tspan style="font-weight: bold;">bias</tspan><tspan>〈256〉</tspan></text></g><g class="node-argument"><rect rx="3" ry="3" x="3" y="31" width="85.546875" height="14" style="fill: transparent;"/><text xml:space="preserve" x="6" y="42" style="font-family: -apple-system, BlinkMacSystemFont, &quot;Segoe WPC&quot;, &quot;Segoe UI&quot;, Ubuntu, &quot;Droid Sans&quot;, sans-serif, &quot;PingFang SC&quot;; font-size: 9px; font-weight: normal; text-rendering: geometricprecision; user-select: none;"><tspan>activation</tspan><tspan> = relu</tspan></text></g><g class="node-argument"><rect rx="3" ry="3" x="3" y="45" width="85.546875" height="14" style="fill: transparent;"/><text xml:space="preserve" x="6" y="56" style="font-family: -apple-system, BlinkMacSystemFont, &quot;Segoe WPC&quot;, &quot;Segoe UI&quot;, Ubuntu, &quot;Droid Sans&quot;, sans-serif, &quot;PingFang SC&quot;; font-size: 9px; font-weight: normal; text-rendering: geometricprecision; user-select: none;"><tspan>bias_constraint</tspan><tspan> = </tspan></text></g><g class="node-argument"><rect rx="3" ry="3" x="3" y="59" width="85.546875" height="14" style="fill: transparent;"/><text xml:space="preserve" x="6" y="70" style="font-family: -apple-system, BlinkMacSystemFont, &quot;Segoe WPC&quot;, &quot;Segoe UI&quot;, Ubuntu, &quot;Droid Sans&quot;, sans-serif, &quot;PingFang SC&quot;; font-size: 9px; font-weight: normal; text-rendering: geometricprecision; user-select: none;"><tspan>kernel_constraint</tspan><tspan> = </tspan></text></g><g class="node-argument"><rect rx="3" ry="3" x="3" y="73" width="85.546875" height="14" style="fill: transparent;"/><text xml:space="preserve" x="6" y="84" style="font-family: -apple-system, BlinkMacSystemFont, &quot;Segoe WPC&quot;, &quot;Segoe UI&quot;, Ubuntu, &quot;Droid Sans&quot;, sans-serif, &quot;PingFang SC&quot;; font-size: 9px; font-weight: normal; text-rendering: geometricprecision; user-select: none;"><tspan>units</tspan><tspan> = 256</tspan></text></g><line class="node" x1="0" x2="91.546875" y1="0" y2="0" style="stroke: rgb(51, 51, 51); fill: none; stroke-width: 1px;"/></g><g class="node-item node-item-type node-item-type-activation" transform="translate(0,113)"><path d="M0,0h91.546875a0,0 0 0 1 0,0v23a0,0 0 0 1 0,0h-91.546875a0,0 0 0 1 0,0v-23a0,0 0 0 1 0,0z" style="stroke: rgb(0, 0, 0); fill: rgb(112, 41, 33); stroke-width: 0;"/><text x="6" y="16" style="font-family: -apple-system, BlinkMacSystemFont, &quot;Segoe WPC&quot;, &quot;Segoe UI&quot;, Ubuntu, &quot;Droid Sans&quot;, sans-serif, &quot;PingFang SC&quot;; font-size: 11px; text-rendering: geometricprecision; user-select: none; fill: rgb(255, 255, 255);">Activation</text></g><line class="node" x1="0" x2="91.546875" y1="113" y2="113" style="stroke: rgb(51, 51, 51); fill: none; stroke-width: 1px;"/><g class="node-argument-list" transform="translate(0,136)"><path d="M0,0h91.546875a0,0 0 0 1 0,0v15a5,5 0 0 1 -5,5h-81.546875a5,5 0 0 1 -5,-5v-15a0,0 0 0 1 0,0z" style="stroke: rgb(0, 0, 0); fill: rgb(255, 255, 255); stroke-width: 0;"/><g class="node-argument"><rect rx="3" ry="3" x="3" y="3" width="85.546875" height="14" style="fill: transparent;"/><text xml:space="preserve" x="6" y="14" style="font-family: -apple-system, BlinkMacSystemFont, &quot;Segoe WPC&quot;, &quot;Segoe UI&quot;, Ubuntu, &quot;Droid Sans&quot;, sans-serif, &quot;PingFang SC&quot;; font-size: 9px; font-weight: normal; text-rendering: geometricprecision; user-select: none;"><tspan>activation</tspan><tspan> = relu</tspan></text></g><line class="node" x1="0" x2="91.546875" y1="0" y2="0" style="stroke: rgb(51, 51, 51); fill: none; stroke-width: 1px;"/></g><path class="node node-border" d="M5,0h81.546875a5,5 0 0 1 5,5v146a5,5 0 0 1 -5,5h-81.546875a5,5 0 0 1 -5,-5v-146a5,5 0 0 1 5,-5z" style="stroke: rgb(51, 51, 51); fill: none; stroke-width: 1px;"/></g><g id="node-name-dense_2" class="node graph-node" transform="translate(327.8349609375,0)" style=""><g class="node-item node-item-type node-item-type-layer" transform="translate(0,0)"><path d="M5,0h116.833984375a5,5 0 0 1 5,5v18a0,0 0 0 1 0,0h-126.833984375a0,0 0 0 1 0,0v-18a5,5 0 0 1 5,-5z" style="stroke: rgb(0, 0, 0); fill: rgb(51, 85, 136); stroke-width: 0;"/><text x="6" y="16" style="font-family: -apple-system, BlinkMacSystemFont, &quot;Segoe WPC&quot;, &quot;Segoe UI&quot;, Ubuntu, &quot;Droid Sans&quot;, sans-serif, &quot;PingFang SC&quot;; font-size: 11px; text-rendering: geometricprecision; user-select: none; fill: rgb(255, 255, 255);">Dense</text><title>dense_2</title></g><g class="node-argument-list" transform="translate(0,23)"><path d="M0,0h126.833984375a0,0 0 0 1 0,0v90a0,0 0 0 1 0,0h-126.833984375a0,0 0 0 1 0,0v-90a0,0 0 0 1 0,0z" style="stroke: rgb(0, 0, 0); fill: rgb(255, 255, 255); stroke-width: 0;"/><g class="node-argument"><rect rx="3" ry="3" x="3" y="3" width="120.833984375" height="14" style="fill: transparent;"/><text xml:space="preserve" x="6" y="14" style="font-family: -apple-system, BlinkMacSystemFont, &quot;Segoe WPC&quot;, &quot;Segoe UI&quot;, Ubuntu, &quot;Droid Sans&quot;, sans-serif, &quot;PingFang SC&quot;; font-size: 9px; font-weight: normal; text-rendering: geometricprecision; user-select: none;"><title>float32[256,128]</title><tspan style="font-weight: bold;">kernel</tspan><tspan>〈256×128〉</tspan></text></g><g class="node-argument"><rect rx="3" ry="3" x="3" y="17" width="120.833984375" height="14" style="fill: transparent;"/><text xml:space="preserve" x="6" y="28" style="font-family: -apple-system, BlinkMacSystemFont, &quot;Segoe WPC&quot;, &quot;Segoe UI&quot;, Ubuntu, &quot;Droid Sans&quot;, sans-serif, &quot;PingFang SC&quot;; font-size: 9px; font-weight: normal; text-rendering: geometricprecision; user-select: none;"><title>float32[128]</title><tspan style="font-weight: bold;">bias</tspan><tspan>〈128〉</tspan></text></g><g class="node-argument"><rect rx="3" ry="3" x="3" y="31" width="120.833984375" height="14" style="fill: transparent;"/><text xml:space="preserve" x="6" y="42" style="font-family: -apple-system, BlinkMacSystemFont, &quot;Segoe WPC&quot;, &quot;Segoe UI&quot;, Ubuntu, &quot;Droid Sans&quot;, sans-serif, &quot;PingFang SC&quot;; font-size: 9px; font-weight: normal; text-rendering: geometricprecision; user-select: none;"><tspan>activation</tspan><tspan> = CustomLeakyR…</tspan></text></g><g class="node-argument"><rect rx="3" ry="3" x="3" y="45" width="120.833984375" height="14" style="fill: transparent;"/><text xml:space="preserve" x="6" y="56" style="font-family: -apple-system, BlinkMacSystemFont, &quot;Segoe WPC&quot;, &quot;Segoe UI&quot;, Ubuntu, &quot;Droid Sans&quot;, sans-serif, &quot;PingFang SC&quot;; font-size: 9px; font-weight: normal; text-rendering: geometricprecision; user-select: none;"><tspan>bias_constraint</tspan><tspan> = </tspan></text></g><g class="node-argument"><rect rx="3" ry="3" x="3" y="59" width="120.833984375" height="14" style="fill: transparent;"/><text xml:space="preserve" x="6" y="70" style="font-family: -apple-system, BlinkMacSystemFont, &quot;Segoe WPC&quot;, &quot;Segoe UI&quot;, Ubuntu, &quot;Droid Sans&quot;, sans-serif, &quot;PingFang SC&quot;; font-size: 9px; font-weight: normal; text-rendering: geometricprecision; user-select: none;"><tspan>kernel_constraint</tspan><tspan> = </tspan></text></g><g class="node-argument"><rect rx="3" ry="3" x="3" y="73" width="120.833984375" height="14" style="fill: transparent;"/><text xml:space="preserve" x="6" y="84" style="font-family: -apple-system, BlinkMacSystemFont, &quot;Segoe WPC&quot;, &quot;Segoe UI&quot;, Ubuntu, &quot;Droid Sans&quot;, sans-serif, &quot;PingFang SC&quot;; font-size: 9px; font-weight: normal; text-rendering: geometricprecision; user-select: none;"><tspan>units</tspan><tspan> = 128</tspan></text></g><line class="node" x1="0" x2="126.833984375" y1="0" y2="0" style="stroke: rgb(51, 51, 51); fill: none; stroke-width: 1px;"/></g><g class="node-item node-item-type" transform="translate(0,113)"><path d="M0,0h126.833984375a0,0 0 0 1 0,0v23a0,0 0 0 1 0,0h-126.833984375a0,0 0 0 1 0,0v-23a0,0 0 0 1 0,0z" style="stroke: rgb(0, 0, 0); fill: rgb(0, 0, 0); stroke-width: 0;"/><text x="6" y="16" style="font-family: -apple-system, BlinkMacSystemFont, &quot;Segoe WPC&quot;, &quot;Segoe UI&quot;, Ubuntu, &quot;Droid Sans&quot;, sans-serif, &quot;PingFang SC&quot;; font-size: 11px; text-rendering: geometricprecision; user-select: none; fill: rgb(255, 255, 255);">CustomLeakyReLU</text><title>custom_leaky_re_lu</title></g><line class="node" x1="0" x2="126.833984375" y1="113" y2="113" style="stroke: rgb(51, 51, 51); fill: none; stroke-width: 1px;"/><g class="node-argument-list" transform="translate(0,136)"><path d="M0,0h126.833984375a0,0 0 0 1 0,0v15a5,5 0 0 1 -5,5h-116.833984375a5,5 0 0 1 -5,-5v-15a0,0 0 0 1 0,0z" style="stroke: rgb(0, 0, 0); fill: rgb(255, 255, 255); stroke-width: 0;"/><g class="node-argument"><rect rx="3" ry="3" x="3" y="3" width="120.833984375" height="14" style="fill: transparent;"/><text xml:space="preserve" x="6" y="14" style="font-family: -apple-system, BlinkMacSystemFont, &quot;Segoe WPC&quot;, &quot;Segoe UI&quot;, Ubuntu, &quot;Droid Sans&quot;, sans-serif, &quot;PingFang SC&quot;; font-size: 9px; font-weight: normal; text-rendering: geometricprecision; user-select: none;"><tspan>negative_slope</tspan><tspan> = 0.3</tspan></text></g><line class="node" x1="0" x2="126.833984375" y1="0" y2="0" style="stroke: rgb(51, 51, 51); fill: none; stroke-width: 1px;"/></g><path class="node node-border" d="M5,0h116.833984375a5,5 0 0 1 5,5v146a5,5 0 0 1 -5,5h-116.833984375a5,5 0 0 1 -5,-5v-146a5,5 0 0 1 5,-5z" style="stroke: rgb(51, 51, 51); fill: none; stroke-width: 1px;"/></g><g id="node-name-dense_3" class="node graph-node" transform="translate(474.6689453125,10)" style=""><g class="node-item node-item-type node-item-type-layer" transform="translate(0,0)"><path d="M5,0h114.3203125a5,5 0 0 1 5,5v18a0,0 0 0 1 0,0h-124.3203125a0,0 0 0 1 0,0v-18a5,5 0 0 1 5,-5z" style="stroke: rgb(0, 0, 0); fill: rgb(51, 85, 136); stroke-width: 0;"/><text x="6" y="16" style="font-family: -apple-system, BlinkMacSystemFont, &quot;Segoe WPC&quot;, &quot;Segoe UI&quot;, Ubuntu, &quot;Droid Sans&quot;, sans-serif, &quot;PingFang SC&quot;; font-size: 11px; text-rendering: geometricprecision; user-select: none; fill: rgb(255, 255, 255);">Dense</text><title>dense_3</title></g><g class="node-argument-list" transform="translate(0,23)"><path d="M0,0h124.3203125a0,0 0 0 1 0,0v90a0,0 0 0 1 0,0h-124.3203125a0,0 0 0 1 0,0v-90a0,0 0 0 1 0,0z" style="stroke: rgb(0, 0, 0); fill: rgb(255, 255, 255); stroke-width: 0;"/><g class="node-argument"><rect rx="3" ry="3" x="3" y="3" width="118.3203125" height="14" style="fill: transparent;"/><text xml:space="preserve" x="6" y="14" style="font-family: -apple-system, BlinkMacSystemFont, &quot;Segoe WPC&quot;, &quot;Segoe UI&quot;, Ubuntu, &quot;Droid Sans&quot;, sans-serif, &quot;PingFang SC&quot;; font-size: 9px; font-weight: normal; text-rendering: geometricprecision; user-select: none;"><title>float32[128,1]</title><tspan style="font-weight: bold;">kernel</tspan><tspan>〈128×1〉</tspan></text></g><g class="node-argument"><rect rx="3" ry="3" x="3" y="17" width="118.3203125" height="14" style="fill: transparent;"/><text xml:space="preserve" x="6" y="28" style="font-family: -apple-system, BlinkMacSystemFont, &quot;Segoe WPC&quot;, &quot;Segoe UI&quot;, Ubuntu, &quot;Droid Sans&quot;, sans-serif, &quot;PingFang SC&quot;; font-size: 9px; font-weight: normal; text-rendering: geometricprecision; user-select: none;"><title>float32[1]</title><tspan style="font-weight: bold;">bias</tspan><tspan>〈1〉</tspan></text></g><g class="node-argument"><rect rx="3" ry="3" x="3" y="31" width="118.3203125" height="14" style="fill: transparent;"/><text xml:space="preserve" x="6" y="42" style="font-family: -apple-system, BlinkMacSystemFont, &quot;Segoe WPC&quot;, &quot;Segoe UI&quot;, Ubuntu, &quot;Droid Sans&quot;, sans-serif, &quot;PingFang SC&quot;; font-size: 9px; font-weight: normal; text-rendering: geometricprecision; user-select: none;"><tspan>activation</tspan><tspan> = CustomClippe…</tspan></text></g><g class="node-argument"><rect rx="3" ry="3" x="3" y="45" width="118.3203125" height="14" style="fill: transparent;"/><text xml:space="preserve" x="6" y="56" style="font-family: -apple-system, BlinkMacSystemFont, &quot;Segoe WPC&quot;, &quot;Segoe UI&quot;, Ubuntu, &quot;Droid Sans&quot;, sans-serif, &quot;PingFang SC&quot;; font-size: 9px; font-weight: normal; text-rendering: geometricprecision; user-select: none;"><tspan>bias_constraint</tspan><tspan> = </tspan></text></g><g class="node-argument"><rect rx="3" ry="3" x="3" y="59" width="118.3203125" height="14" style="fill: transparent;"/><text xml:space="preserve" x="6" y="70" style="font-family: -apple-system, BlinkMacSystemFont, &quot;Segoe WPC&quot;, &quot;Segoe UI&quot;, Ubuntu, &quot;Droid Sans&quot;, sans-serif, &quot;PingFang SC&quot;; font-size: 9px; font-weight: normal; text-rendering: geometricprecision; user-select: none;"><tspan>kernel_constraint</tspan><tspan> = </tspan></text></g><g class="node-argument"><rect rx="3" ry="3" x="3" y="73" width="118.3203125" height="14" style="fill: transparent;"/><text xml:space="preserve" x="6" y="84" style="font-family: -apple-system, BlinkMacSystemFont, &quot;Segoe WPC&quot;, &quot;Segoe UI&quot;, Ubuntu, &quot;Droid Sans&quot;, sans-serif, &quot;PingFang SC&quot;; font-size: 9px; font-weight: normal; text-rendering: geometricprecision; user-select: none;"><tspan>units</tspan><tspan> = 1</tspan></text></g><line class="node" x1="0" x2="124.3203125" y1="0" y2="0" style="stroke: rgb(51, 51, 51); fill: none; stroke-width: 1px;"/></g><g class="node-item node-item-type" transform="translate(0,113)"><path d="M0,0h124.3203125a0,0 0 0 1 0,0v18a5,5 0 0 1 -5,5h-114.3203125a5,5 0 0 1 -5,-5v-18a0,0 0 0 1 0,0z" style="stroke: rgb(0, 0, 0); fill: rgb(0, 0, 0); stroke-width: 0;"/><text x="6" y="16" style="font-family: -apple-system, BlinkMacSystemFont, &quot;Segoe WPC&quot;, &quot;Segoe UI&quot;, Ubuntu, &quot;Droid Sans&quot;, sans-serif, &quot;PingFang SC&quot;; font-size: 11px; text-rendering: geometricprecision; user-select: none; fill: rgb(255, 255, 255);">CustomClippedReLU</text><title>custom_clipped_re_lu</title></g><line class="node" x1="0" x2="124.3203125" y1="113" y2="113" style="stroke: rgb(51, 51, 51); fill: none; stroke-width: 1px;"/><path class="node node-border" d="M5,0h114.3203125a5,5 0 0 1 5,5v126a5,5 0 0 1 -5,5h-114.3203125a5,5 0 0 1 -5,-5v-126a5,5 0 0 1 5,-5z" style="stroke: rgb(51, 51, 51); fill: none; stroke-width: 1px;"/></g><g class="node" transform="translate(618.9892578125,66.5)" style=""><g class="node-item graph-item-output" transform="translate(0,0)"><path d="M5,0h43.4404296875a5,5 0 0 1 5,5v13a5,5 0 0 1 -5,5h-43.4404296875a5,5 0 0 1 -5,-5v-13a5,5 0 0 1 5,-5z" style="stroke: rgb(0, 0, 0); fill: rgb(238, 238, 238); stroke-width: 0;"/><text x="6" y="16" style="font-family: -apple-system, BlinkMacSystemFont, &quot;Segoe WPC&quot;, &quot;Segoe UI&quot;, Ubuntu, &quot;Droid Sans&quot;, sans-serif, &quot;PingFang SC&quot;; font-size: 11px; text-rendering: geometricprecision; user-select: none;">dense_3</text></g><path class="node node-border" d="M5,0h43.4404296875a5,5 0 0 1 5,5v13a5,5 0 0 1 -5,5h-43.4404296875a5,5 0 0 1 -5,-5v-13a5,5 0 0 1 5,-5z" style="stroke: rgb(51, 51, 51); fill: none; stroke-width: 1px;"/></g></g></g></svg>